<svg fill="none" xmlns="http://www.w3.org/2000/svg" viewBox="0 0 230 66">
    <g clip-path="url(#clip0)">
        <path d="M137.601 34.057h14.181v3.117h-14.181v14.468h-3.102V37.174h-14.181v-3.117h14.181V20.145h3.102v13.912zm49.634 19.366l3.545.445v3.117l-1.218.222c-1.773.334-3.213.668-4.764.668-1.108 0-1.995-.222-2.438-.556-.443-.446-.664-1.225-.664-2.56v-1.224c-1.219 1.001-2.549 1.892-3.878 2.67-2.105 1.225-4.542 1.893-7.312 1.893-3.656 0-6.648-1.002-9.085-3.005-2.437-2.004-3.656-5.12-3.656-9.127 0-5.12 2.548-9.238 7.201-11.24 5.318-2.338 15.732-2.004 16.286-2.004 0 0 0-3.784-.664-5.454-.443-1.224-1.219-2.114-2.327-2.671-1.108-.556-2.659-.89-4.764-.89-2.216 0-4.21.334-6.093 1.001-2.327.78-5.651 2.671-5.651 2.671l-1.772-3.45s2.105-2.114 8.752-4.23c1.994-.667 3.989-1 5.872-1 3.102 0 5.54.444 7.312 1.335 1.773.89 3.213 2.337 3.989 4.23.775 1.891 1.218 4.562 1.218 7.679v21.48h.111zm-5.983-17.14s-8.42-.334-11.965 1.447c-2.88 1.447-4.985 4.34-4.985 7.457 0 2.783 1.218 5.009 2.659 6.233 1.44 1.224 3.323 1.892 5.761 1.892 1.329 0 2.991-.445 4.985-1.336 1.219-.556 2.438-1.224 3.545-2.003v-13.69zm43.984 17.14V2.783L214.6 4.228v3.005l4.432.557V53.2l-4.875.556v3.45h15.954v-3.45l-4.875-.334zm-19.721-50.64L194.88 4.228v3.005l4.431.557V53.2l-4.875.556v3.45h15.954v-3.45l-4.875-.445V2.782z" fill="white"/>
        <path d="M41.768 28.381c-.443 11.798-6.537 19.366-15.4 25.265C11.744 59.545 0 49.083 4.653 34.726c1.994-5.677 8.199-19.478 15.732-21.37 2.992-1.224 6.205 1.113 7.423-.445.222-.334 1.551-1.559 2.66-1.559 6.868 1.225 11.41 7.68 11.3 17.03zm-8.531-7.012c-2.88-1.001-4.21 2.449-6.758 2.338-2.548-.668 1.33-4.23-2.991-5.12-5.872.222-6.537 5.899-9.86 10.128-6.205 8.793-1.33 19.7 3.988 21.926 6.98-.111 17.394-11.686 17.504-20.702-.11-.111.887-7.012-1.883-8.57zM76.445 52.2l-.665-17.808c0-.445.222-1.447.222-1.447.332-3.339.886-13.578.886-15.248 0-1.001.222-8.792.222-9.237 0-.334 0-.557-.111-.78 0-.11-.11-.222-.11-.445 0-.667.11-1.446.22-2.226.112-.779.112-1.558 0-2.226-.11-.667-.331-1.224-.775-1.78C75.78.112 74.118 0 74.008 0c-.887 0-1.884.334-1.995 1.002l-.443 3.561c-.664 5.454-1.218 14.246-1.55 20.59a440.781 440.781 0 00-.333 17.03s0 .333-.222.333c-.332 0-.664-.223-.775-.445 0-.111-5.429-9.683-5.872-10.462-.443-.89-.886-1.67-1.219-2.338-.775-1.78-2.216-4.34-3.434-6.232a19.398 19.398 0 01-1.995-3.673v-.111c0-.89.111-1.67.111-2.56 0-.78 0-1.558-.221-2.226-.222-.668-.554-1.113-1.108-1.67-.554-.445-1.551-.779-2.548-.89-1.44-.111-2.438.445-2.549 1.335-.332 3.117-.664 6.345-1.107 9.572-.444 3.228-.997 6.456-1.551 9.572-.554 3.227-1.108 6.455-1.662 9.572-.554 3.227-.997 6.343-1.44 9.571l-1.22 9.683c-.22 1.558.444 2.449 1.22 3.005 2.437 1.781 3.766 1.002 4.32.557.665-.334 1.108-.78 1.219-1.558.443-5.009 1.551-13.468 2.327-18.476.775-5.008 1.661-10.017 2.548-14.914 0-.111.11-.111.11-.111.554 0 2.77 4.785 3.435 5.676.332.445 4.764 8.347 12.408 21.703 0 0 .887 1.892 2.77 2.337 0 0 1.773.334 2.88-.667.666-.557 1.109-1.336 1.33-2.449.111-.445-.11-1.113-.332-2.003-.11 0-.665-1.002-.665-2.115zm39.441-41.96a1.863 1.863 0 00-1.108-.333c-.443 0-1.329 0-2.659.222-1.772.334-10.635 2.56-15.288 3.673-1.108.334-1.662.334-1.995.334-.332 0-.554 0-.775.111h-.333c-.332 0-.554-.222-.775-.556-.222-.334-.443-.557-.776-.668-1.662-.334-2.88-.111-3.767.445-.775.557-1.33 1.67-1.55 3.34-.111.89-.111 1.669.22 2.448.333.779.444 1.558.333 2.448-.775 8.793-1.55 14.358-1.55 14.358-.112 1.001-1.663 2.448-1.884 2.782-.222.223-.332.668-.443 1.002-.111.556-.111.89 0 1.113.332.779 1.108 1.113 1.108 1.67.11 1.112 0 2.003-.222 2.893-.665 3.116-.997 7.123-.997 9.015-.222 7.457.554 6.79 1.219 7.68.221.334.775.556 1.55.668 1.773.334 2.992 0 2.992 0 1.108-.334 2.105-.89 3.102-1.447 1.108-.668 9.417-6.233 10.525-7.235 1.108-.89 1.994-1.78 2.77-2.337.443-.334 1.108-.779 1.994-1.224.886-.445 1.773-1.002 2.659-1.558.886-.557 1.662-1.113 2.437-1.67.776-.668 1.219-1.224 1.33-1.78.111-.335.111-.891-.111-1.448-.221-.556-.443-.89-.554-1.113-1.329-1.224-1.883-.89-2.548-.556-2.216 1.002-20.496 13.022-20.607 13.133l.886-6.789c.111-.779.222-3.784.554-5.565 0-.223.444-2.226.554-3.005l13.849-8.681c.665-.334 1.108-.89 1.551-1.558.332-.78.665-1.447.776-2.004.11-.668 0-1.224-.444-1.892-.332-.668-1.107-1.224-1.44-1.113l-1.772.89c-1.108.668-2.438 1.336-3.878 2.115-1.44.78-2.88 1.558-4.32 2.449-1.441.779-3.214 1.78-3.214 1.78s-.11-.556 0-1.446c0-.89.111-2.004.222-3.117.11-1.224.221-2.337.221-3.45.111-1.113.111-1.67.222-2.115 0-.222.11-.556.221-1.001.111-.445.665-.78.998-.89l20.053-5.454c.554-.112.997-.557 1.329-1.002.222-.445.443-1.002.443-1.558.111-.557.111-1.002-.111-1.336 0-.222-.443-.445-.997-.668z" fill="white"/>
    </g>
    <defs>
        <clipPath id="clip0">
            <path fill="#fff" d="M0 0h230v66H0z"/>
        </clipPath>
    </defs>
</svg>